<svg xmlns="http://www.w3.org/2000/svg" width="73" height="72" fill="none" viewBox="0 0 73 72">
    <path fill="#EA5431" d="M61.383 31.814l.934.266c.31-1.87 2.58-1.96 3.065-3.655.358-1.258-.269-2.298-1.573-2.67-.934-.267-1.801-.027-2.506.433l.442.725c.535-.346 1.122-.479 1.699-.314.82.234 1.088.91.89 1.602-.39 1.373-2.644 1.529-2.951 3.613zm-.274 2.841c.427.122.865-.102 1-.575.138-.485-.113-.918-.54-1.04-.415-.119-.857.117-.995.602-.135.473.12.895.535 1.013zM13.574 44.864l1.068-.38c-.974-1.987 1.123-3.61.433-5.549-.511-1.437-1.811-2-3.302-1.47-1.068.38-1.73 1.195-2.087 2.11l.911.39c.274-.693.742-1.216 1.401-1.45.937-.334 1.65.126 1.932.917.558 1.57-1.476 3.245-.356 5.432zm1.665 2.885c.488-.174.752-.684.56-1.225-.197-.554-.729-.796-1.217-.622-.475.169-.734.692-.537 1.246.192.54.72.77 1.194.6z"/>
    <path stroke="#2F5A8D" stroke-linecap="round" stroke-linejoin="round" d="M28.774 22.454L17 27.324c24.136 3.34 36.302.928 39-.696-10.302-5.566-13.981-4.87-16.189-3.478-1.095.69-2.943 1.391-4.415 0-1.766-1.67-5.15-1.16-6.622-.696z"/>
    <path fill="#fff" d="M36.857 54c-6.29 0-10.006-5.024-10.006-9.331V29.253c10.26.604 10.26.604 20.013.343v15.073c0 4.307-3.717 9.331-10.007 9.331z"/>
    <path fill="#2F5A8D" d="M26.851 29.253l.042-.498c-.14-.011-.278.036-.38.13-.103.095-.162.228-.162.368h.5zm20.013.343h.5v-.514l-.514.014.014.5zm-20.013-.343l-.041.499h.012l.03-.499zm-.5 15.416c0 4.561 3.92 9.831 10.506 9.831v-1c-5.992 0-9.506-4.779-9.506-8.831h-1zM36.857 54.5c6.587 0 10.507-5.27 10.507-9.831h-1c0 4.052-3.514 8.831-9.507 8.831v1zM26.351 29.253v11.11h1v-11.11h-1zm0 11.11v4.306h1v-4.307h-1zM17.523 27.59c.6 1.931 1.682 4.912 3.2 7.565.759 1.326 1.635 2.586 2.627 3.592.99 1.006 2.117 1.783 3.38 2.1l.243-.97c-1.025-.258-1.999-.905-2.91-1.831-.912-.925-1.739-2.106-2.472-3.388-1.467-2.563-2.523-5.468-3.114-7.365l-.954.297zm29.84 17.078v-4.307h-1v4.307h1zm0-4.307V29.596h-1v10.766h1zm-.203.403c3.333-2.449 7.6-7.788 8.336-13.703l-.992-.124c-.693 5.57-4.758 10.686-7.936 13.021l.592.806zm-.31-11.669c-9.737.26-9.723.261-19.97-.342l-.058.998c10.273.605 10.287.605 20.055.344l-.027-1zm-19.957-.34l-.083.996.083-.997zM31.737 45.5c.068 0 .135-.01.204-.029l.022-.006c.392-.114.619-.529.505-.925-.113-.396-.523-.626-.915-.51l-.017.005c-.393.113-.62.526-.507.924.09.327.387.541.708.541z"/>
    <path fill="#2F5A8D" d="M40.737 50.5c.068 0 .135-.01.204-.029l.022-.006c.392-.114.619-.529.505-.925-.113-.396-.523-.626-.915-.51l-.017.005c-.393.113-.62.526-.507.924.09.327.387.541.708.541zM44.737 46.5c.068 0 .135-.01.204-.029l.022-.006c.392-.114.619-.529.505-.925-.113-.396-.523-.626-.915-.51l-.017.005c-.393.113-.62.526-.507.924.09.327.387.541.708.541zM40.737 47.5c.068 0 .135-.01.204-.029l.022-.006c.392-.114.619-.529.505-.925-.113-.396-.523-.626-.915-.51l-.017.005c-.393.113-.62.526-.507.924.09.327.387.541.708.541zM34.737 51.5c.068 0 .135-.01.204-.029l.022-.006c.392-.114.619-.529.505-.925-.113-.396-.523-.626-.915-.51l-.017.005c-.393.113-.62.526-.507.924.09.327.387.541.708.541zM30.737 48.5c.068 0 .135-.01.204-.029l.022-.006c.392-.114.619-.529.505-.925-.113-.396-.523-.626-.915-.51l-.017.005c-.393.113-.62.526-.507.924.09.327.387.541.708.541zM27 32c-3.316 0-7.47-3.095-9-4.286V27l9 1.5V32zM47 32c5.236-.8 8.182-4.333 9-6-1.929 1.5-6.429 2.25-9 3v3z"/>
    <path stroke="#2F5A8D" stroke-linecap="round" stroke-linejoin="round" d="M37 34v15"/>
</svg>
