<svg xmlns="http://www.w3.org/2000/svg" width="73" height="72" fill="none" viewBox="0 0 73 72">
    <mask id="l3vuox925a" width="72" height="72" x="0" y="0" maskUnits="userSpaceOnUse">
        <rect width="72" height="72" fill="#C4C4C4" rx="36"/>
    </mask>
    <g mask="url(#l3vuox925a)">
        <path fill="#fff" d="M22.38 53.045C32.167 51.842 29.72 41.18 27.274 36h19.08c-5.24 7.5-2.613 14.5 0 15.5 0 3 7.607 1.598 10.147 2.5 5.504 1.955 7 3 9 6 2.336 3.504 21.612-22 15.612-10-5 12.5-20.722 19-21.608 27.5-16 7-55.891 7.422-53.392-11l.613-4.5c2.349-8.422 12.068-9.623 15.656-8.955z"/>
        <path stroke="#2F5A8D" d="M28.004 38.5c3 5.5 2 15-7 14.5-4.833 0-14.5 2.6-14.5 13v6M44.585 39c-3.128 5.418-2.085 14.776 7.298 14.284C56.922 53.284 67 55.844 67 66.09V72"/>
        <path fill="#2F5A8D" d="M48 53c-10.8 10.532-19.692 4.388-23.5 0C18.685 51.44 12 55 8 58.5 16.5 71 30.096 72.162 36.5 72c18-.457 25.923-10.087 28-13.5-.83-2.73-12-6.5-16.5-5.5z"/>
    </g>
    <path fill="#fff" stroke="#2F5A8D" d="M23.3 32.648c-1.186-4.988 1.481-4.988 2.963-4.365l.741 6.236c-.74 1.454-2.519 3.117-3.704-1.871zM49.709 32.648c1.185-4.988-1.482-4.988-2.964-4.365l-.74 6.236c.74 1.454 2.518 3.117 3.704-1.871z"/>
    <path fill="#fff" stroke="#2F5A8D" d="M48.135 27.494l-.816 8.067c-.572 5.644-5.324 9.939-10.996 9.939-5.744 0-10.53-4.4-11.013-10.123l-.682-8.08C24.047 20.411 29.48 14.5 36.39 14.5c6.99 0 12.449 6.04 11.744 12.994z"/>
    <path fill="#2F5A8D" d="M34.892 10.822c.921-.331 2.595-.166 3.6-.491l.016-.005c.485-.16 1.161.177 1.327.66 0 0 .5-.247.92-.33.527-.104 1.045.25 1.087.785l.003.037c.525-.13 1.026.25 1.152.776.049.202.111.376.19.453.185-.358.638-.493.913-.198.1.106.193.229.261.364.253.49 1.006.987 1.506 1.808.5.822 1.253 1.313 1.59 2.465.336 1.152.584 2.134.584 2.134.106-.233.432-.192.461.063.025.22.044.456.044.675 0 .657.168 1.892.252 2.63.085.74-.168 1.396 0 2.134.169.74.253.74.169 1.23-.084.496-.01.94-.095 1.597-.084.656-.237 1.384-.237 2.04 0 .657-.594 3.851-.594 3.851.1-.811-.19-2.244-.227-3.06-.026-.522-.047-1.11-.294-1.586-.116-.227.294-1.6-1.02-3.354-1-2-.163-.708-1-2-.484-.75-1.5-1.5-2.5-2-1.844-.922-2.155 0-3 .5-1.36.805-1.153.912-2 1-.837.083-.755-.197-1.34-.445-.583-.248-1.491 1.688-2.16 1.445-.669-.248-1.266-2.266-2.187-2.1C30.14 22.286 28 23 26.5 25c-.558 1.147-.789 1.012-.977 3.683-.163 2.317-.152 4.062 0 5.317 0 0-.41-1.483-.747-2.387-.2-.543-.063-2.067-.237-2.93-.116-.573-.442-1.348-.51-1.772-.1-.65.094-1.323.115-2.578.016-.801-.231-2.046-.037-3.007.5-2.465.932-2.842 1.253-3.534.334-.715 1.154-1.757 1.662-2.37.164-.198.48-.102.512.153 0 0 .753-1.478 1.926-2.3 1.174-.82 1.59-.986 2.258-1.477.511-.375 1.805-.943 2.723-1.374.253-.12.542.133.451.398z"/>
    <path fill="#2F5A8D" d="M40 10c-10-1.5-15 5.667-15.5 10L39 18l10 8c1.2-9.2-3.5-15-9-16z"/>
    <path fill="#fff" fill-opacity=".6" stroke="#fff" stroke-width="4" d="M54 40c0 9.941-8.059 18-18 18s-18-8.059-18-18 8.059-18 18-18 18 8.059 18 18z"/>
    <path fill="#2F5A8D" d="M34.584 44.952h3.072c-.36-3.384 3.816-4.536 3.816-7.944 0-3.072-2.112-4.56-4.992-4.56-2.088 0-3.792.984-5.04 2.4l1.944 1.776c.768-.792 1.608-1.344 2.664-1.344 1.248 0 2.04.768 2.04 1.968 0 2.28-4.08 3.84-3.504 7.704zm1.536 6.384c1.272 0 2.208-1.008 2.208-2.304 0-1.32-.936-2.304-2.208-2.304-1.248 0-2.184.984-2.184 2.304 0 1.296.936 2.304 2.184 2.304z"/>
</svg>
