<svg xmlns="http://www.w3.org/2000/svg" width="73" height="72" fill="none" viewBox="0 0 73 72">
    <path fill="#fff" stroke="#2F5A8D" d="M43.548 34.225h0c.282.51.568.953.837 1.37l.205.318c.33.517.637 1.029.919 1.669.164.373.345 1.018.434 1.693.092.692.073 1.309-.075 1.673v.001c-.436 1.081-1.355 1.552-2.563 1.754-.237.04-.608.032-1.158.022l-.205-.003c-.636-.011-1.42-.017-2.298.066h0c-.515.049-1.075.18-1.593.3l-.032.007c-.526.123-1.012.235-1.447.278-.432-.043-.918-.154-1.445-.277l-.035-.008c-.518-.121-1.076-.251-1.59-.3h0c-.878-.082-1.663-.077-2.299-.066-.07 0-.14.002-.205.003-.55.01-.922.017-1.158-.022-1.207-.202-2.127-.673-2.562-1.754h0c-.148-.366-.166-.983-.074-1.674.09-.675.27-1.32.435-1.693.282-.64.59-1.151.919-1.668.066-.105.135-.21.204-.318.27-.417.555-.86.837-1.371h0c.761-1.383 1.646-3.111 2.425-6.161.803-3.139 1.078-5.868 1.307-8.14.05-.49.096-.959.146-1.406.286-2.56.657-4.304 1.847-5.46h0c.35-.342.822-.546 1.25-.558.43.012.901.216 1.25.557h.002c1.19 1.157 1.56 2.9 1.845 5.461.05.447.097.915.146 1.405.228 2.271.503 5.001 1.306 8.14.78 3.05 1.664 4.78 2.425 6.162z"/>
    <path fill="#2F5A8D" d="M33.66 40.733c.364.507.063 1.268-.044 1.4-.367.454-1.304.454-2.525.046-.68-.228-1.6-.77-1.695-1.548-.073-.612 1.179-1.181 2.19-1.055.738.09 1.629.537 2.074 1.157zM39.487 40.733c-.365.507-.064 1.268.044 1.4.367.454 1.302.454 2.525.046.68-.228 1.6-.77 1.694-1.548.074-.612-1.178-1.181-2.189-1.055-.738.09-1.627.537-2.074 1.157z"/>
    <path fill="#EA5431" d="M54.383 47.814l.934.266c.31-1.87 2.58-1.96 3.065-3.655.358-1.258-.268-2.298-1.572-2.67-.935-.267-1.802-.027-2.507.433l.442.725c.535-.346 1.122-.479 1.699-.314.82.234 1.088.91.89 1.602-.39 1.373-2.644 1.529-2.951 3.613zm-.274 2.841c.427.122.865-.102 1-.575.138-.485-.113-.918-.54-1.04-.415-.119-.857.117-.995.602-.135.473.12.895.535 1.013zM19.574 33.864l1.068-.38c-.974-1.987 1.123-3.61.433-5.549-.511-1.437-1.811-2-3.302-1.47-1.068.38-1.73 1.195-2.087 2.11l.911.39c.274-.693.742-1.216 1.401-1.45.937-.334 1.65.126 1.931.917.559 1.57-1.475 3.245-.355 5.432zm1.665 2.885c.488-.174.752-.684.56-1.225-.197-.554-.729-.796-1.217-.622-.475.169-.734.692-.537 1.246.192.54.72.77 1.194.6z"/>
    <path fill="#DFF5FF" fill-opacity=".3" d="M41.25 47c-3.529 2.127-7.577.886-9.16 0L27 62.064c7.6 5.317 15.833 2.216 19 0L41.25 47z"/>
    <path stroke="#2F5A8D" stroke-linecap="round" stroke-linejoin="round" d="M32 47l-5 15M41 47l5 15"/>
    <path fill="#2F5A8D" d="M39.737 58.5c.068 0 .135-.01.204-.029l.022-.006c.392-.114.619-.529.505-.925-.113-.396-.523-.626-.915-.51l-.017.005c-.393.113-.62.526-.507.924.09.327.387.541.708.541zM37.737 55.5c.068 0 .135-.01.204-.029l.022-.006c.392-.114.619-.529.505-.925-.113-.396-.523-.626-.915-.51l-.017.005c-.393.113-.62.526-.507.924.09.327.387.541.708.541zM31.737 61.5c.068 0 .135-.01.204-.029l.022-.006c.392-.114.619-.529.505-.925-.113-.396-.523-.626-.915-.51l-.017.005c-.393.113-.62.526-.507.924.09.327.387.541.708.541z"/>
    <path stroke="#2F5A8D" stroke-linecap="round" stroke-linejoin="round" d="M35 48l-1 9"/>
</svg>
