<svg xmlns="http://www.w3.org/2000/svg" width="72" height="73" fill="none" viewBox="0 0 72 73">
    <path fill="#fff" d="M36.676 41.824l4.456 2.318c1.04.278 2.119-.293 2.47-1.318l.02-.06 1.13-1.73-3.182-1.687.458-.491c.054-.058 1.354-1.415 3.73-.966.482.09.775.006.917-.06l.75-3.222h1.955l.07.02c.103.03.206.011.309-.056.131-.086.2-.211.213-.26l-1.004-6.72.046-.124c.767-2.072 1.048-4.016.842-5.816-1.477.087-6.938-.379-9.301.38-1.523.49-2.925 3.41-2.925 3.41s-3.253-1.859-4.353 1.907c-.692 2.368.233 3.702.233 3.702s-3.72 3.118-4.945 4.14c-.387.322-.962.729-1.453 1.063-.013.047-.028.094-.046.138l-.025.05-4.08 7.261c.946.981 1.927 1.834 2.903 2.575.837.536 1.903 1.18 3.265 1.948.875.493 1.75.97 2.557 1.4 1.055.442 1.954.74 2.61.932l-.586-2.28 2.966-6.454z"/>
    <path fill="#2F5A8D" d="M42.457 11.85c.686.297 1.425.634 2.182.987-.683-.372-1.411-.703-2.182-.988zM23.505 24.26c-.18 1.918.04 3.956.85 7.009.037.133.094.292.167.47-.548-2.193-1.02-4.85-1.017-7.478zM22.96 43.7l4.08-7.26.024-.05c.018-.044.033-.091.047-.139-.523.356-.95.63-.95.63s-.087-.205-.226-.577l-3.831 6.817c.133-.078.206-.117.206-.117.216.239.432.47.65.697zM50.186 21.602c-.058.024-.17.04-.33.049.206 1.8-.074 3.744-.841 5.816l-.046.124 1.004 6.72c-.012.048-.082.174-.213.26-.103.067-.206.087-.308.056l-.072-.02h-1.955l-.749 3.221c-.142.067-.436.151-.917.06-2.376-.449-3.676.909-3.73.967l-.458.49 3.182 1.688-1.13 1.73-.02.06c-.352 1.024-1.43 1.596-2.47 1.317l-4.456-2.317-2.967 6.453.585 2.28c.667.195 1.078.278 1.137.29l-.635-2.472 2.364-5.14 3.589 1.867.048.015c1.561.456 3.197-.374 3.755-1.894l1.676-2.568-2.843-1.508c.466-.229 1.197-.431 2.182-.245 1.254.237 1.862-.327 1.927-.394l.104-.104.642-2.767h1c.45.102.926-.032 1.29-.366.346-.318.524-.756.458-1.12l-.964-6.45c.815-2.25 1.084-4.42.81-6.425-.199.117-.414.228-.65.327zM25.864 46.276c2.082 1.579 4.146 2.646 5.822 3.348-.807-.431-1.681-.907-2.557-1.4-1.362-.768-2.428-1.411-3.265-1.948z"/>
    <path fill="#2F5A8D" d="M27.113 36.25c.49-.333 1.065-.74 1.452-1.062 1.225-1.022 4.945-4.14 4.945-4.14s-.924-1.332-.233-3.702c1.1-3.766 4.353-1.906 4.353-1.906s1.402-2.92 2.925-3.41c2.364-.76 7.826-.293 9.301-.38.158-.01.271-.025.329-.05.234-.098.45-.208.65-.326 2.43-1.435 2.367-4.15 2.367-4.15s-4.543-2.404-8.564-4.287c-.758-.355-1.495-.69-2.183-.988-1.08-.469-2.031-.845-2.72-1.05C31.925 8.476 26.08 13 24.103 19.7c-.425 1.44-.596 2.995-.598 4.562-.004 2.628.469 5.284 1.016 7.479.518 2.074 1.103 3.735 1.414 4.565.14.372.226.577.226.577s.429-.276.952-.632zM35.432 50.846c-.059-.012-.471-.095-1.137-.29-.654-.192-1.555-.49-2.61-.932-1.675-.704-3.74-1.77-5.821-3.348-.977-.74-1.958-1.593-2.903-2.574-.219-.226-.435-.458-.648-.697 0 0-.073.04-.207.118-1.514.884-10.942 6.685-13.961 15.681 6.601 8.056 16.629 13.197 27.857 13.197 2.39 0 4.723-.235 6.983-.678-.863-9.402-7.543-20.474-7.543-20.474s-.005-.003-.01-.003z"/>
    <path fill="#fff" d="M61.814 48.662l-1.475-7.608c-.477.252-.662.913-.71 1.12.083.742.477 4.582.011 5.967-1.344 4.001-3.31 5.698-3.391 5.769l-.285.242-.318-.197c-.908-.562-.883-1.832-.643-2.55.154-.464.944-2.092 1.1-2.414.218-.725.22-1.286.006-1.621-.063-.098-.14-.168-.215-.22l-2.908 5.65c-.72 1.164-1.003 2.71-.96 3.656l.279 4.397-1.834 8.117c2.066-.908 4.03-2.003 5.87-3.266l.077-3.341 5.396-13.7z"/>
    <path fill="#2F5A8D" d="M62.88 48.76l-1.712-8.832-.423-.002h-.004c-.734 0-1.361.397-1.766 1.116-.276.491-.364.97-.373 1.023l-.013.072.009.072c.137 1.205.417 4.56.068 5.603-.906 2.697-2.118 4.274-2.716 4.938-.108-.326-.054-.773.028-1.021.107-.32.698-1.565 1.068-2.324l.03-.075c.33-1.073.29-1.928-.118-2.542-.458-.688-1.183-.78-1.264-.788l-.349-.034-3.245 6.31c-.833 1.354-1.153 3.096-1.102 4.236l.27 4.259-1.962 8.69c.391-.157.78-.321 1.165-.49l1.834-8.118-.28-4.397c-.042-.945.24-2.493.96-3.657l2.909-5.649c.076.05.152.122.215.22.214.335.212.896-.005 1.622-.157.321-.946 1.948-1.101 2.413-.24.717-.267 1.987.643 2.55l.318.197.285-.242c.083-.07 2.047-1.767 3.391-5.77.465-1.384.071-5.224-.01-5.965.047-.207.232-.869.709-1.12l1.475 7.608-5.397 13.699-.076 3.34c.353-.24.702-.49 1.045-.744l.054-2.39 5.44-13.807z"/>
    <path fill="#EA5431" d="M53.533 37.545l-4.482.541c-.315.038-.54.324-.502.64.036.292.284.505.57.505.023 0 .046 0 .07-.003l4.481-.542c.316-.038.54-.324.502-.64-.038-.315-.324-.54-.64-.501zM53.363 41.978l-3.715-1.438c-.296-.114-.629.032-.744.329-.114.296.033.628.329.744l3.716 1.438c.068.026.138.04.207.04.23 0 .448-.14.536-.367.115-.299-.033-.631-.329-.746zM47.834 42.743c-.208-.24-.571-.266-.81-.06-.241.207-.267.57-.06.81l2.949 3.417c.114.132.274.2.436.2.132 0 .266-.046.375-.14.24-.208.267-.571.06-.81l-2.95-3.417z"/>
</svg>
