<svg xmlns="http://www.w3.org/2000/svg" width="72" height="73" fill="none" viewBox="0 0 72 73">
    <mask id="lz7ktrfoda" width="72" height="72" x="0" y="0" maskUnits="userSpaceOnUse">
        <rect width="72" height="72" fill="#C4C4C4" rx="36"/>
    </mask>
    <g mask="url(#lz7ktrfoda)">
        <path fill="#fff" d="M22.38 53.045C32.167 51.842 29.72 41.18 27.274 36h19.08c-5.24 7.5-2.613 14.5 0 15.5 0 3 7.607 1.598 10.147 2.5 5.504 1.955 7 3 9 6 2.336 3.504 21.612-22 15.612-10-5 12.5-20.722 19-21.608 27.5-16 7-55.891 7.422-53.392-11l.613-4.5c2.349-8.422 12.068-9.623 15.656-8.955z"/>
        <path stroke="#2F5A8D" d="M28.004 38.5c3 5.5 2 15-7 14.5-4.833 0-14.5 2.6-14.5 13v6M44.585 39c-3.128 5.418-2.085 14.776 7.298 14.284C56.922 53.284 67 55.844 67 66.09V72"/>
        <path fill="#2F5A8D" d="M48 53c-10.8 10.532-19.692 4.388-23.5 0C18.685 51.44 12 55 8 58.5 16.5 71 30.096 72.162 36.5 72c18-.457 25.923-10.087 28-13.5-.83-2.73-12-6.5-16.5-5.5z"/>
        <path fill="#EA5431" d="M36.32 53.246c1.062 0 1.923-.861 1.923-1.924 0-1.062-.86-1.923-1.923-1.923-1.062 0-1.923.861-1.923 1.923 0 1.063.86 1.924 1.923 1.924z"/>
        <path fill="#EA5431" d="M36.319 55.488c-2.297 0-4.165-1.868-4.165-4.165 0-2.297 1.868-4.165 4.165-4.165 2.297 0 4.165 1.868 4.165 4.165 0 2.297-1.868 4.165-4.165 4.165zm0-7.41c-1.79 0-3.245 1.455-3.245 3.245s1.455 3.245 3.245 3.245 3.245-1.456 3.245-3.245c0-1.79-1.455-3.246-3.245-3.246z"/>
        <path fill="#EA5431" d="M36.32 57.645c-3.486 0-6.322-2.836-6.322-6.322S32.833 45 36.319 45c3.486 0 6.322 2.836 6.322 6.322s-2.836 6.322-6.322 6.322zm0-11.856c-3.052 0-5.534 2.482-5.534 5.534 0 3.051 2.482 5.533 5.533 5.533 3.052 0 5.534-2.482 5.534-5.533 0-3.052-2.482-5.534-5.534-5.534z"/>
    </g>
    <path fill="#fff" stroke="#2F5A8D" d="M23.3 32.648c-1.186-4.988 1.481-4.988 2.963-4.365l.74 6.236c-.74 1.454-2.518 3.117-3.704-1.871zM49.709 32.648c1.185-4.988-1.482-4.988-2.964-4.365l-.741 6.236c.74 1.454 2.52 3.117 3.705-1.871z"/>
    <path fill="#fff" stroke="#2F5A8D" d="M24.627 27.297C24.046 20.41 29.477 14.5 36.389 14.5c6.99 0 12.448 6.04 11.744 12.993l-.817 8.07c-.571 5.643-5.323 9.938-10.995 9.938-5.744 0-10.53-4.4-11.013-10.123l-.681-8.081z"/>
    <path fill="#2F5A8D" d="M34.89 10.822c.922-.331 2.596-.166 3.6-.491l.016-.005c.486-.16 1.162.177 1.327.66 0 0 .5-.247.921-.33.526-.104 1.044.25 1.087.785l.002.037c.525-.13 1.026.25 1.152.776.049.202.111.376.19.454.185-.36.638-.494.913-.2.1.107.193.23.261.365.253.49 1.006.987 1.506 1.808.5.822 1.252 1.313 1.59 2.465.336 1.152.583 2.134.583 2.134.107-.233.433-.191.462.063.025.22.044.457.044.676 0 .656.168 1.89.252 2.63.084.738-.168 1.395 0 2.134.169.738.253.738.169 1.23-.085.495-.01.94-.095 1.596-.084.656-.237 1.385-.237 2.04 0 .657-.595 3.851-.595 3.851.1-.81-.19-2.243-.226-3.06-.026-.521-.047-1.11-.295-1.586-.116-.227.295-1.6-1.02-3.354-1-2-.162-.708-1-2-.483-.749-1.499-1.5-2.499-2-1.844-.922-2.154 0-3 .5-1.36.805-1.152.912-2 1-.837.083-.755-.196-1.339-.444S35.167 24.243 34.5 24c-.669-.248-1.266-2.266-2.187-2.1-2.174.387-4.313 1.1-5.813 3.1-.558 1.147-.789 1.012-.977 3.684-.163 2.316-.152 4.06 0 5.316 0 0-.41-1.483-.747-2.387-.2-.542-.063-2.066-.237-2.93-.116-.573-.442-1.348-.51-1.772-.1-.65.094-1.322.115-2.578.016-.8-.231-2.046-.037-3.007.5-2.465.932-2.842 1.253-3.534.334-.715 1.154-1.756 1.662-2.37.164-.198.479-.102.512.153 0 0 .752-1.478 1.926-2.3 1.174-.82 1.59-.986 2.258-1.477.51-.375 1.804-.943 2.722-1.374.253-.12.543.133.452.398z"/>
    <path fill="#2F5A8D" d="M40 10c-10-1.5-15 5.667-15.5 10L39 18l10 8c1.2-9.2-3.5-15-9-16z"/>
    <g clip-path="url(#clip0)">
        <path fill="#2F5A8D" d="M36.5 40.42c-1.239 0-2.554.197-3.035.428-.485.232-.485.165-.453 0 .029-.164.24-.628.815-1.055.575-.432 1.166-.793 2.673-.793 1.512 0 2.099.36 2.673.793.575.427.786.89.815 1.055.033.165.033.232-.452 0-.481-.231-1.797-.427-3.036-.427z"/>
    </g>
    <defs>
        <clipPath id="clip0">
            <path fill="#fff" d="M0 0H7V2H0z" transform="rotate(-180 20 20.5)"/>
        </clipPath>
    </defs>
</svg>
