<svg xmlns="http://www.w3.org/2000/svg" width="72" height="73" fill="none" viewBox="0 0 72 73">
    <mask id="70k7bz6i1a" width="72" height="72" x="0" y="0" maskUnits="userSpaceOnUse">
        <rect width="72" height="72" fill="#C4C4C4" rx="36"/>
    </mask>
    <g mask="url(#70k7bz6i1a)">
        <path fill="#fff" d="M56.392 25.803c-1.79-2.19-.513-3.234.35-3.483l5.22 8.063L60.9 60.93 50.5 68.5l5.93-23.095-2.931-5.823.9-8.954c1.672-.636 1.823 1.858 1.69 3.185.061 3.39.82 3.502 1.192 3.135 1.672-.636 1.23-5.572.8-7.96l-1.69-3.185zM38.401 43.22l4.873 1.463c1.095.32 2.245-.276 2.617-1.359l.016-.046 2.54-4.093.763-3.285h1.877l.059.017c.17.05.315-.02.407-.087.154-.113.22-.261.224-.31l-.003-.013-1-6.698.038-.104c.772-2.084 1.054-4.04.848-5.851-1.34.113-6.974-.39-9.386.387-1.524.49-2.925 3.41-2.925 3.41s-3.253-1.86-4.353 1.906c-.692 2.368.233 3.702.233 3.702s-3.72 3.118-4.945 4.14c-.418.348-1.055.795-1.568 1.141l-.008.026-.021.043-4.068 7.239c1.3 1.356 2.665 2.47 3.998 3.382.607.369 1.303.777 2.103 1.228.56.317 1.119.626 1.663.92 1.55.728 2.87 1.168 3.726 1.415l-.59-2.3L38.4 43.22z"/>
        <path fill="#2F5A8D" d="M24.615 44.848l4.068-7.239.02-.043c.005-.008.006-.017.01-.026-.47.317-.835.552-.835.552s-.07-.169-.187-.474l-3.73 6.638.066-.041c.195.216.392.427.588.633zM25.853 31.247c-.294-1.453-.526-3.033-.603-4.628-.01 1.325.172 2.78.603 4.628zM51.901 22.811c-.047.02-.13.033-.244.043.206 1.81-.076 3.767-.848 5.852l-.038.103 1 6.698.002.014c-.003.05-.07.196-.223.31-.092.067-.237.137-.407.086l-.06-.017h-1.875l-.762 3.285-2.541 4.093-.016.047c-.37 1.082-1.522 1.679-2.617 1.358L38.4 43.22l-2.884 6.274.59 2.3c.467.133.795.21.95.242l-.632-2.46 2.445-5.317 4.16 1.25c1.523.445 3.119-.37 3.657-1.857l2.564-4.132.64-2.758h1.077c.428.102.87-.02 1.221-.344.325-.3.494-.708.432-1.044l-.967-6.472c.81-2.23 1.083-4.382.817-6.368-.175.098-.364.191-.568.277zM28.614 48.23c1.32.902 2.607 1.605 3.766 2.149-.544-.296-1.103-.605-1.663-.92-.8-.453-1.495-.861-2.103-1.23z"/>
        <path fill="#2F5A8D" d="M28.714 37.539c.513-.347 1.15-.793 1.567-1.142 1.225-1.02 4.946-4.139 4.946-4.139s-.925-1.333-.233-3.702c1.1-3.766 4.352-1.907 4.352-1.907s1.402-2.92 2.925-3.41c2.412-.775 8.047-.273 9.386-.386.115-.01.198-.024.245-.043.203-.085.392-.18.57-.28 2.513-1.422 2.447-4.197 2.447-4.197s-10.011-5.297-13.467-6.325c-7.81-2.325-13.655 2.2-15.631 8.9-.53 1.793-.664 3.764-.571 5.71.077 1.595.308 3.175.603 4.629.599 2.953 1.463 5.384 1.838 6.37.117.306.187.474.187.474s.367-.234.836-.552zM37.055 52.036c-.154-.033-.483-.109-.95-.243-.856-.245-2.176-.686-3.726-1.414-1.159-.544-2.447-1.247-3.766-2.15-1.333-.91-2.7-2.025-3.998-3.381-.198-.206-.393-.418-.587-.634l-.066.042c-.898.575-10.896 7.13-14.276 16.31 6.57 7.035 15.926 11.435 26.311 11.435 2.933 0 5.782-.354 8.511-1.015-1.38-9.028-7.352-18.929-7.352-18.929l-.1-.02z"/>
        <path fill="#284C7A" d="M61.798 44.718c0-.272.012-.553.026-.826.007-.144.014-.287.018-.431l.465-12.984c.014-.383.009-.568-.262-.973l-4.568-6.809c-.015-.022-.029-.047-.044-.074-.054-.095-.123-.214-.227-.314-.035-.05-.113-.14-.236-.19-.11-.042-.254-.052-.438.032l-.062.028c-.781.342-1.185 1.213-1.082 2.331.019.202.06.354.117.492.049.121.109.232.176.354.672 1.229 1.504 2.977 1.977 4.156.175.486.278 4.47-.144 6.065-.097.367-.2.688-.313.976-.666-.549-.577-1.695-.506-2.617.014-.171.025-.335.034-.49.037-.718.135-2.624-1.326-3.344-.035-.018-.886-.429-1.37-.1-.253.172-.257.438-.258.565-.001.018 0 .036-.002.055l-.483 5.87c-.015.18-.032.362-.05.544-.07.736-.143 1.496-.06 2.273.143 1.335.637 2.464 1.102 3.393l.758 1.514c.059.117.13.239.2.355.106.18.226.384.277.544-.13.991-3.453 17.756-5.02 23.388.345-.07.66-.42 1-.5.79-2.94 2.587-10.971 3.156-13.665.45-2.137.918-4.44 1.283-6.318.547-2.824.528-2.907.502-3.019-.069-.304-.243-.599-.396-.858-.064-.109-.124-.211-.169-.3l-.758-1.514c-.428-.856-.883-1.89-1.012-3.084-.074-.689-.008-1.372.06-2.096.019-.185.036-.37.05-.556l.479-5.795c.106.025.231.065.314.106.798.392.846 1.525.797 2.468-.007.148-.02.304-.031.467-.084 1.082-.199 2.562.87 3.415.44.35.833.432 1.108.23.151-.109.205-.274.245-.393l.009-.027c.153-.363.288-.767.411-1.237.436-1.65.394-5.904.107-6.617-.494-1.228-1.327-2.979-2.025-4.255-.124-.227-.166-.304-.184-.495-.044-.479.036-1.04.363-1.33l.029.043 4.568 6.808c.117.174.117.174.106.437l-.463 12.985-.018.42c-.014.283-.028.576-.028.869l-.006 3.626c-.007 3.856-.019 9.496-.02 12.906.313-.156.928-.48.928-.48.002-3.516.012-8.939.019-12.396l.007-3.628z"/>
    </g>
    <path fill="#EA5431" d="M61.225 8.087c.085-.089.78-.717 1.709-1.702C64.259 4.98 65.942 3.082 65.997 3c-.072.042-2.208 1.491-4.025 2.851-1.917 1.434-3.518 2.782-3.518 2.782s2.83 1.403 3.005 1.503l-.022.021s-1.168 1.064-2.349 2.325c-1.476 1.577-3.034 3.43-3.09 3.518.078-.046 2.046-1.42 3.983-2.919 2.17-1.68 4.33-3.504 4.33-3.504s-2.9-1.387-3.086-1.49z"/>
</svg>
